# xmcd
#
# Track frame offsets:
#	150
#	137578
#	220951
#	307954
#
# Disc length: 5297 seconds
#
# Revision: 0
# Processed by: cddbd v1.5.2PL0 Copyright (c) Steve Scherf et al.
# Submitted via: dBpowerAMP V4.0
#
DISCID=3214af04
DTITLE=Birchville Cat Motel - Beautiful Speck Triumph
DYEAR=1900
DGENRE=
TTITLE0=White Ground Elder
TTITLE1=Trembling Frost Spires
TTITLE2=Speck Fears
TTITLE3=The Romance of Certain Old Clothes
EXTD=
EXTT0=
EXTT1=
EXTT2=
EXTT3=
PLAYORDER=
